<?xml version="1.0" encoding="UTF-8" standalone="no"?>
<!-- Created with Inkscape (http://www.inkscape.org/) -->
<svg
   xmlns:svg="http://www.w3.org/2000/svg"
   xmlns="http://www.w3.org/2000/svg"
   version="1.0"
   width="417.40155"
   height="453.5433"
   id="svg2">
  <defs
     id="defs5" />
  <path
     d="M 21.113735,450.03279 C 10.715195,447.92985 8.1595254,440.96397 14.277815,431.40045 C 21.658005,419.86445 266.11373,25.717642 266.11373,25.354235 C 266.11373,25.134476 249.57347,24.954674 229.3576,24.954674 C 180.70936,24.954674 164.17459,26.874938 138.11373,35.551272 C 112.50116,44.07836 88.901005,59.485684 74.989515,76.761804 C 65.309645,88.782844 60.345765,100.28673 55.541575,121.8328 C 55.249925,123.14078 53.718975,125.50328 52.139445,127.0828 C 45.458115,133.76414 33.556675,128.29207 33.791425,118.64671 C 33.872125,115.33089 44.735845,19.392326 45.800815,12.590655 C 46.648255,7.1782761 49.770665,3.9407971 55.142865,2.9043391 C 61.984035,1.5844751 377.87706,1.7105681 384.05561,3.0356291 C 393.45463,5.0513581 395.79136,12.343328 389.97542,21.508893 C 382.45662,33.358069 140.22498,423.87828 139.16207,425.86435 L 137.98179,428.06972 L 197.79776,427.7241 C 255.43636,427.39107 258.00972,427.29575 268.4923,425.10568 C 312.84472,415.83935 346.74911,393.6321 369.78784,358.7575 C 380.37707,342.72818 387.30304,325.97184 390.59023,308.42921 C 391.49983,303.57498 392.85598,298.42 393.60389,296.97369 C 396.1817,291.98876 403.25022,290.52088 408.69342,293.84014 C 415.12911,297.76462 415.27826,294.88284 404.71821,370.64706 C 399.44347,408.49125 394.65229,441.14643 394.07114,443.21413 C 393.45889,445.39247 391.89737,447.7056 390.35829,448.71413 C 387.86075,450.35069 376.8568,450.46321 206.1579,450.59764 C 106.30861,450.67628 23.038735,450.4221 21.113735,450.03279 z M 236.34622,226.59334 C 304.96835,116.1196 361.11373,25.551198 361.11373,25.330212 C 361.11373,25.109225 345.72634,25.046826 326.91952,25.191546 L 292.72531,25.454674 L 169.37143,223.95467 C 101.52679,333.12967 45.349575,423.69809 44.533155,425.21784 L 43.048765,427.981 L 77.313745,427.71784 L 111.57872,427.45467 L 236.34622,226.59334 z M 374.51178,425.20467 C 375.20742,421.76992 380.11373,386.45528 380.11373,384.88292 C 380.11373,384.24795 376.0053,388.06956 370.98389,393.37537 C 360.52189,404.42992 345.50405,416.8512 335.19811,422.97385 C 331.3017,425.28866 328.11373,427.35632 328.11373,427.56864 C 328.11373,427.78095 338.42798,427.95467 351.03427,427.95467 L 373.95482,427.95467 L 374.51178,425.20467 z M 73.943615,45.850734 C 79.262185,41.393568 87.820505,34.981068 92.962115,31.600734 L 102.3105,25.454674 L 85.498835,25.179528 C 76.252425,25.028198 68.197095,25.092444 67.598115,25.322296 C 66.996165,25.553284 65.940265,31.26739 65.237415,38.097442 C 64.538015,44.89392 63.743745,51.242174 63.472375,52.204674 C 63.200995,53.167174 63.270235,53.954674 63.626235,53.954674 C 63.982225,53.954674 68.625055,50.307901 73.943615,45.850734 z "
     style="fill:#000000;fill-opacity:1"
     id="path2054" />
</svg>
